<?xml version="1.0" encoding="UTF-8" standalone="no"?>
<!DOCTYPE svg PUBLIC "-//W3C//DTD SVG 1.1//EN" "http://www.w3.org/Graphics/SVG/1.1/DTD/svg11.dtd">
<svg width="100%" height="100%" viewBox="0 0 89 48" version="1.1" xmlns="http://www.w3.org/2000/svg" xmlns:xlink="http://www.w3.org/1999/xlink" xml:space="preserve" xmlns:serif="http://www.serif.com/" style="fill-rule:evenodd;clip-rule:evenodd;stroke-linejoin:round;stroke-miterlimit:2;">
    <g id="rant_logo" transform="matrix(1,0,0,1,-0.96125,-1.752)">
        <path d="M9.936,29.184L9.936,42L2.592,42L2.592,18.672L9.936,18.672L9.936,20.448C11.376,18.944 13.376,18.192 15.936,18.192C17.056,18.192 18.032,18.368 18.864,18.72C19.728,19.04 20.48,19.552 21.12,20.256L16.752,25.776C16.432,25.424 16.032,25.152 15.552,24.96C15.072,24.768 14.528,24.672 13.92,24.672C12.704,24.672 11.728,25.056 10.992,25.824C10.288,26.56 9.936,27.68 9.936,29.184ZM54.471,28.704L54.471,42L47.127,42L47.127,18.672L54.471,18.672L54.471,20.5C54.972,20.053 55.532,19.667 56.151,19.344C57.591,18.576 59.207,18.192 60.999,18.192C62.727,18.192 64.247,18.608 65.559,19.44C66.903,20.24 67.959,21.312 68.727,22.656C69.495,24 69.879,25.472 69.879,27.072L69.879,42L62.535,42L62.535,28.704C62.535,27.488 62.151,26.512 61.383,25.776C60.647,25.008 59.703,24.624 58.551,24.624C57.751,24.624 57.047,24.8 56.439,25.152C55.831,25.472 55.351,25.952 54.999,26.592C54.647,27.2 54.471,27.904 54.471,28.704ZM36.676,40.109C36.063,40.689 35.343,41.175 34.516,41.568C33.236,42.176 31.812,42.48 30.244,42.48C28.1,42.48 26.18,41.952 24.484,40.896C22.82,39.84 21.492,38.4 20.5,36.576C19.54,34.752 19.06,32.672 19.06,30.336C19.06,28 19.54,25.92 20.5,24.096C21.492,22.272 22.82,20.832 24.484,19.776C26.18,18.72 28.1,18.192 30.244,18.192C31.812,18.192 33.22,18.496 34.468,19.104C35.307,19.503 36.043,20.004 36.676,20.609L36.676,18.672L43.876,18.672L43.876,42L36.676,42L36.676,40.109ZM31.732,35.856C33.3,35.856 34.564,35.344 35.524,34.32C36.484,33.264 36.964,31.936 36.964,30.336C36.964,29.248 36.74,28.288 36.292,27.456C35.876,26.624 35.268,25.984 34.468,25.536C33.7,25.056 32.804,24.816 31.78,24.816C30.756,24.816 29.844,25.056 29.044,25.536C28.276,25.984 27.652,26.624 27.172,27.456C26.724,28.288 26.5,29.248 26.5,30.336C26.5,31.392 26.724,32.336 27.172,33.168C27.62,34 28.244,34.656 29.044,35.136C29.844,35.616 30.74,35.856 31.732,35.856ZM75.707,24.912L70.427,24.912L70.427,18.672L75.707,18.672L75.707,9.024L83.051,9.024L83.051,18.672L88.331,18.672L88.331,24.912L83.051,24.912L83.051,42L75.707,42L75.707,24.912Z" style="fill:url(#_Linear1);"/>
    </g>
    <defs>
        <linearGradient id="_Linear1" x1="0" y1="0" x2="1" y2="0" gradientUnits="userSpaceOnUse" gradientTransform="matrix(89,0,0,89,0,24)"><stop offset="0" style="stop-color:rgb(236,72,153);stop-opacity:1"/><stop offset="0.5" style="stop-color:rgb(168,85,247);stop-opacity:1"/><stop offset="1" style="stop-color:rgb(99,102,241);stop-opacity:1"/></linearGradient>
    </defs>
</svg>
