<svg width="20" height="18" viewBox="0 0 20 18" fill="none" xmlns="http://www.w3.org/2000/svg">
<path d="M17.7448 0.798462H2.22352C1.00008 0.798462 0 1.79855 0 3.02198V11.9877C0 13.1678 0.96508 14.1329 2.14518 14.1329C2.47521 14.1329 2.73189 14.4246 2.68689 14.7513C2.51021 16.0414 1.82182 16.6731 1.75348 16.9115C1.64847 17.2815 3.38862 17.5465 4.91541 16.0781C5.55546 15.463 5.86215 14.8513 6.0005 14.4829C6.08051 14.2712 6.28386 14.1329 6.51054 14.1329H17.7981C19.0149 14.1329 20 13.1462 20 11.9311V3.05532C20.0017 1.81355 18.9866 0.798462 17.7448 0.798462Z" fill="url(#paint0_linear_1_6)"/>
<path d="M17.7448 0.798462H2.22352C1.00008 0.798462 0 1.79855 0 3.02198V11.9877C0 13.1678 0.96508 14.1329 2.14518 14.1329C2.47521 14.1329 2.73189 14.4246 2.68689 14.7513C2.51021 16.0414 1.82182 16.6731 1.75348 16.9115C1.64847 17.2815 3.38862 17.5465 4.91541 16.0781C5.55546 15.463 5.86215 14.8513 6.0005 14.4829C6.08051 14.2712 6.28386 14.1329 6.51054 14.1329H17.7981C19.0149 14.1329 20 13.1462 20 11.9311V3.05532C20.0017 1.81355 18.9866 0.798462 17.7448 0.798462Z" fill="url(#paint1_linear_1_6)"/>
<path d="M4.76206 8.76412C5.4985 8.76412 6.09551 8.16711 6.09551 7.43067C6.09551 6.69423 5.4985 6.09723 4.76206 6.09723C4.02562 6.09723 3.42862 6.69423 3.42862 7.43067C3.42862 8.16711 4.02562 8.76412 4.76206 8.76412Z" fill="white"/>
<path d="M10.0958 8.76412C10.8323 8.76412 11.4293 8.16711 11.4293 7.43067C11.4293 6.69423 10.8323 6.09723 10.0958 6.09723C9.35939 6.09723 8.76239 6.69423 8.76239 7.43067C8.76239 8.16711 9.35939 8.76412 10.0958 8.76412Z" fill="white"/>
<path d="M15.2396 8.76412C15.976 8.76412 16.573 8.16711 16.573 7.43067C16.573 6.69423 15.976 6.09723 15.2396 6.09723C14.5032 6.09723 13.9062 6.69423 13.9062 7.43067C13.9062 8.16711 14.5032 8.76412 15.2396 8.76412Z" fill="white"/>
<g opacity="0.2">
<path d="M4.76206 6.43059C5.31378 6.43059 5.76215 6.87896 5.76215 7.43067C5.76215 7.98239 5.31378 8.43076 4.76206 8.43076C4.21035 8.43076 3.76198 7.98239 3.76198 7.43067C3.76198 6.87896 4.21035 6.43059 4.76206 6.43059ZM4.76206 6.09723C4.02534 6.09723 3.42862 6.69395 3.42862 7.43067C3.42862 8.1674 4.02534 8.76412 4.76206 8.76412C5.49879 8.76412 6.09551 8.1674 6.09551 7.43067C6.09551 6.69395 5.49879 6.09723 4.76206 6.09723Z" fill="#424242"/>
<path d="M10.0958 6.43059C10.6475 6.43059 11.0959 6.87896 11.0959 7.43067C11.0959 7.98239 10.6475 8.43076 10.0958 8.43076C9.54412 8.43076 9.09575 7.98239 9.09575 7.43067C9.09575 6.87896 9.54412 6.43059 10.0958 6.43059ZM10.0958 6.09723C9.35911 6.09723 8.76239 6.69395 8.76239 7.43067C8.76239 8.1674 9.35911 8.76412 10.0958 8.76412C10.8326 8.76412 11.4293 8.1674 11.4293 7.43067C11.4293 6.69395 10.8326 6.09723 10.0958 6.09723Z" fill="#424242"/>
<path d="M15.2396 6.43059C15.7913 6.43059 16.2397 6.87896 16.2397 7.43067C16.2397 7.98239 15.7913 8.43076 15.2396 8.43076C14.6879 8.43076 14.2395 7.98239 14.2395 7.43067C14.2395 6.87896 14.6879 6.43059 15.2396 6.43059ZM15.2396 6.09723C14.5029 6.09723 13.9062 6.69395 13.9062 7.43067C13.9062 8.1674 14.5029 8.76412 15.2396 8.76412C15.9763 8.76412 16.573 8.1674 16.573 7.43067C16.573 6.69395 15.9763 6.09723 15.2396 6.09723Z" fill="#424242"/>
</g>
<g opacity="0.2">
<path d="M17.7448 1.2985C18.7132 1.2985 19.5016 2.0869 19.5016 3.05532V11.9311C19.5016 12.8695 18.7382 13.6329 17.7998 13.6329H6.51221C6.08051 13.6329 5.68714 13.9046 5.53546 14.3079C5.40378 14.6546 5.13043 15.1813 4.57038 15.7197C3.66531 16.5898 2.78023 16.6948 2.47521 16.7031C2.72689 16.3148 3.06359 15.7014 3.1836 14.8213C3.22527 14.5229 3.13359 14.2212 2.93524 13.9946C2.73689 13.7662 2.44854 13.6345 2.14518 13.6345C1.23677 13.6345 0.500042 12.8961 0.500042 11.9894V3.02198C0.500042 2.0719 1.27344 1.2985 2.22352 1.2985H17.7448ZM17.7448 0.798462H2.22352C1.00008 0.798462 0 1.79855 0 3.02198V11.9877C0 13.1678 0.96508 14.1329 2.14518 14.1329C2.47521 14.1329 2.73189 14.4246 2.68689 14.7513C2.51021 16.0414 1.82182 16.6731 1.75348 16.9115C1.71014 17.0648 1.98683 17.2015 2.43354 17.2015C3.06025 17.2015 4.02367 16.9348 4.91541 16.0781C5.55546 15.463 5.86215 14.8513 6.0005 14.4829C6.08051 14.2713 6.28386 14.1329 6.51054 14.1329H17.7981C19.0149 14.1329 20 13.1462 20 11.9311V3.05532C20.0017 1.81355 18.9866 0.798462 17.7448 0.798462Z" fill="#424242"/>
</g>
<defs>
<linearGradient id="paint0_linear_1_6" x1="10.0008" y1="1.79304" x2="10.0008" y2="15.3247" gradientUnits="userSpaceOnUse">
<stop offset="0.4391" stop-color="#FAFAFA"/>
<stop offset="0.8212" stop-color="#E0E0E0"/>
</linearGradient>
<linearGradient id="paint1_linear_1_6" x1="0" y1="8.99999" x2="20" y2="8.99999" gradientUnits="userSpaceOnUse">
<stop stop-color="#22D3EE"/>
<stop offset="0.56" stop-color="#E879F9"/>
<stop offset="1" stop-color="#FF8827"/>
</linearGradient>
</defs>
</svg>
