<svg width="20" height="24" viewBox="0 0 20 24" fill="none" xmlns="http://www.w3.org/2000/svg">
<path d="M4.31473 7.34626C4.20073 8.56224 4.12074 10.7142 4.83872 11.6302C4.83872 11.6302 4.50073 9.26623 7.53068 6.30027C8.75066 5.10629 9.03266 3.48232 8.60667 2.26434C8.36467 1.57435 7.92268 1.00435 7.53868 0.606361C7.31469 0.372365 7.48668 -0.0136293 7.81268 0.000370507C9.78465 0.0883691 12.9806 0.63636 14.3386 4.04431C14.9346 5.54028 14.9786 7.08626 14.6946 8.65824C14.5146 9.66222 13.8746 11.8942 15.3346 12.1682C16.3765 12.3642 16.8805 11.5362 17.1065 10.9402C17.2005 10.6922 17.5265 10.6302 17.7025 10.8282C19.4625 12.8302 19.6125 15.1881 19.2485 17.2181C18.5445 21.142 14.5706 23.998 10.6226 23.998C5.69071 23.998 1.76477 21.176 0.746787 16.0681C0.336794 14.0062 0.544791 9.92622 3.72474 7.04626C3.96074 6.83026 4.34673 7.02226 4.31473 7.34626Z" fill="url(#paint0_radial_13_245)"/>
<path d="M12.4246 14.6841C10.6066 12.3442 11.4206 9.67422 11.8666 8.61024C11.9266 8.47024 11.7666 8.33824 11.6406 8.42424C10.8586 8.95623 9.25666 10.2082 8.51068 11.9702C7.50069 14.3521 7.57269 15.5181 8.17068 16.9421C8.53068 17.8001 8.11268 17.9821 7.90269 18.0141C7.69869 18.0461 7.51069 17.9101 7.36069 17.7681C6.9307 17.3581 6.6207 16.8241 6.47271 16.2481C6.44071 16.1241 6.27871 16.0901 6.20471 16.1921C5.64472 16.9661 5.35472 18.2081 5.34072 19.0861C5.29673 21.8 7.53869 24 10.2506 24C13.6686 24 16.1586 20.2201 14.1946 17.0601C13.6246 16.1401 13.0886 15.5381 12.4246 14.6841Z" fill="url(#paint1_radial_13_245)"/>
<defs>
<radialGradient id="paint0_radial_13_245" cx="0" cy="0" r="1" gradientUnits="userSpaceOnUse" gradientTransform="translate(9.64587 24.0602) rotate(-179.751) scale(14.1173 23.1637)">
<stop offset="0.3144" stop-color="#FF9800"/>
<stop offset="0.6616" stop-color="#FF6D00"/>
<stop offset="0.9715" stop-color="#F44336"/>
</radialGradient>
<radialGradient id="paint1_radial_13_245" cx="0" cy="0" r="1" gradientUnits="userSpaceOnUse" gradientTransform="translate(10.4386 10.012) rotate(90.5787) scale(14.771 11.1163)">
<stop offset="0.2141" stop-color="#FFF176"/>
<stop offset="0.3275" stop-color="#FFF27D"/>
<stop offset="0.4868" stop-color="#FFF48F"/>
<stop offset="0.6722" stop-color="#FFF7AD"/>
<stop offset="0.7931" stop-color="#FFF9C4"/>
<stop offset="0.8221" stop-color="#FFF8BD" stop-opacity="0.804"/>
<stop offset="0.8627" stop-color="#FFF6AB" stop-opacity="0.529"/>
<stop offset="0.9101" stop-color="#FFF38D" stop-opacity="0.2088"/>
<stop offset="0.9409" stop-color="#FFF176" stop-opacity="0"/>
</radialGradient>
</defs>
</svg>
