<svg width="16" height="17" viewBox="0 0 16 17" fill="none" xmlns="http://www.w3.org/2000/svg">
<path d="M13.0487 9.1669C13.1029 9.24834 13.198 9.30263 13.293 9.30263C13.3337 9.30263 13.3744 9.28906 13.4151 9.27549L15.6139 8.23038C15.6818 8.18966 15.7361 8.13537 15.7632 8.05393C15.7904 7.97249 15.7768 7.87748 15.7361 7.80962L15.356 7.17169C15.3153 7.10383 15.2339 7.04953 15.1524 7.03596C15.071 7.02239 14.9896 7.04953 14.9217 7.10383L13.1029 8.75972C12.9944 8.85473 12.9808 9.0176 13.0487 9.13976C13.0351 9.13976 13.0487 9.1669 13.0487 9.1669Z" fill="white"/>
<path d="M15.7089 12.0851L13.4016 10.9857C13.293 10.9314 13.1844 10.9721 13.1165 11.0671L13.0487 11.1893C12.9944 11.2843 13.0079 11.4064 13.0894 11.4879L15.0032 13.2252C15.0439 13.2659 15.0982 13.2795 15.1525 13.2795H15.1796C15.2475 13.2659 15.3018 13.2388 15.3425 13.1709L15.804 12.3973C15.8311 12.343 15.8447 12.2751 15.8311 12.2072C15.804 12.1665 15.7632 12.1122 15.7089 12.0851Z" fill="white"/>
<path d="M15.994 9.65553C15.994 9.57409 15.9532 9.49265 15.8854 9.43836C15.8311 9.38407 15.7497 9.3705 15.6682 9.38407L13.2522 9.87269C13.1301 9.89984 13.0215 10.0084 13.0215 10.1442V10.1849C13.0215 10.3342 13.1437 10.4563 13.2794 10.4699L15.6954 10.6599H15.7225C15.7904 10.6599 15.8582 10.6328 15.899 10.5921C15.9532 10.5378 15.994 10.4563 15.994 10.3749C16.0075 10.3749 15.994 9.65553 15.994 9.65553Z" fill="white"/>
<path d="M9.39755 13.8088C9.56042 13.6867 11.0263 13.5781 11.1756 13.5509C11.4199 13.5238 11.8814 13.3881 12.0714 13.1709C12.7772 12.4108 12.0307 11.8679 12.275 11.4743C12.2886 11.4471 12.3564 11.3657 12.4379 11.2436C12.465 11.1893 12.4922 11.135 12.5193 11.0671C12.5329 11.04 12.6279 10.8092 12.5329 10.6599C12.4379 10.5242 12.1393 10.6328 11.4199 10.6463C11.0942 10.6599 10.9177 10.402 10.9177 10.402C10.9177 10.402 11.2842 10.2663 12.0035 9.9677C12.3429 9.83198 12.56 9.69625 12.6143 9.39764C12.6279 9.28906 12.6007 9.20762 12.5736 9.13976C12.5329 9.00403 12.4786 8.97688 12.4514 8.88187C12.4243 8.77329 12.4514 8.66471 12.5329 8.58327C12.655 8.46111 12.9401 8.3661 12.9944 7.93177C13.0894 7.14454 11.5964 7.04953 11.7592 5.78726C11.7728 5.71939 11.7728 5.77368 11.895 4.90502C11.9085 4.81001 11.9221 4.74215 11.9221 4.68785C11.9221 4.68785 11.9221 4.59284 11.9085 4.49783C11.7999 3.84633 11.1213 2.67907 11.1213 2.67907C10.7956 2.13615 10.782 2.08186 10.7548 2.05471L10.7413 2.04114C10.7413 2.04114 10.7277 2.02757 10.7141 2.014C10.8634 1.89184 11.0399 1.71539 11.0263 1.53895C11.0127 1.34892 10.7277 1.17248 10.5512 1.09104C10.0626 0.860301 4.68776 -1.51495 1.82388 1.56609C0.385155 3.1134 0.181562 4.55212 0.0865516 5.17648C-0.659957 10.0627 3.65622 12.1394 4.07698 13.8631C4.1177 14.026 4.14484 14.3517 4.14484 14.6368C4.14484 15.3344 4.10005 15.8909 4.05798 16.2655H9.22246C9.20888 15.4294 9.21431 13.9541 9.39755 13.8088Z" fill="#1706D4"/>
</svg>
