<svg width="19" height="24" viewBox="0 0 19 24" fill="none" xmlns="http://www.w3.org/2000/svg">
<path d="M3.72413 7.34626C3.61013 8.56224 3.53013 10.7142 4.24812 11.6302C4.24812 11.6302 3.91012 9.26623 6.94008 6.30027C8.16006 5.10629 8.44205 3.48232 8.01606 2.26434C7.77406 1.57435 7.33207 1.00435 6.94808 0.606361C6.72408 0.372365 6.89608 -0.0136293 7.22207 0.000370507C9.19404 0.0883691 12.39 0.63636 13.748 4.04431C14.344 5.54028 14.388 7.08626 14.104 8.65824C13.924 9.66222 13.284 11.8942 14.744 12.1682C15.7859 12.3642 16.2899 11.5362 16.5159 10.9402C16.6099 10.6922 16.9359 10.6302 17.1119 10.8282C18.8719 12.8302 19.0219 15.1881 18.6579 17.2181C17.9539 21.142 13.98 23.998 10.032 23.998C5.1001 23.998 1.17417 21.176 0.156181 16.0681C-0.253813 14.0062 -0.0458157 9.92622 3.13413 7.04626C3.37013 6.83026 3.75613 7.02226 3.72413 7.34626Z" fill="url(#paint0_radial_13_248)"/>
<path d="M11.834 14.6841C10.0161 12.3442 10.83 9.67422 11.276 8.61024C11.336 8.47024 11.176 8.33824 11.05 8.42424C10.268 8.95623 8.66607 10.2082 7.92008 11.9702C6.9101 14.3521 6.9821 15.5181 7.58009 16.9421C7.94008 17.8001 7.52209 17.9821 7.31209 18.0141C7.1081 18.0461 6.9201 17.9101 6.7701 17.7681C6.34011 17.3581 6.03011 16.8241 5.88212 16.2481C5.85012 16.1241 5.68812 16.0901 5.61412 16.1921C5.05413 16.9661 4.76413 18.2081 4.75013 19.0861C4.70613 21.8 6.9481 24 9.66006 24C13.078 24 15.568 20.2201 13.604 17.0601C13.034 16.1401 12.498 15.5381 11.834 14.6841Z" fill="url(#paint1_radial_13_248)"/>
<defs>
<radialGradient id="paint0_radial_13_248" cx="0" cy="0" r="1" gradientUnits="userSpaceOnUse" gradientTransform="translate(9.05526 24.0602) rotate(-179.751) scale(14.1173 23.1637)">
<stop offset="0.3144" stop-color="#FF9800"/>
<stop offset="0.6616" stop-color="#FF6D00"/>
<stop offset="0.9715" stop-color="#F44336"/>
</radialGradient>
<radialGradient id="paint1_radial_13_248" cx="0" cy="0" r="1" gradientUnits="userSpaceOnUse" gradientTransform="translate(9.84802 10.012) rotate(90.5787) scale(14.771 11.1163)">
<stop offset="0.2141" stop-color="#FFF176"/>
<stop offset="0.3275" stop-color="#FFF27D"/>
<stop offset="0.4868" stop-color="#FFF48F"/>
<stop offset="0.6722" stop-color="#FFF7AD"/>
<stop offset="0.7931" stop-color="#FFF9C4"/>
<stop offset="0.8221" stop-color="#FFF8BD" stop-opacity="0.804"/>
<stop offset="0.8627" stop-color="#FFF6AB" stop-opacity="0.529"/>
<stop offset="0.9101" stop-color="#FFF38D" stop-opacity="0.2088"/>
<stop offset="0.9409" stop-color="#FFF176" stop-opacity="0"/>
</radialGradient>
</defs>
</svg>
